# xmcd
#
# Track frame offsets:
# 151
# 11454
# 22499
# 35406
# 49331
# 61582
# 71779
# 85542
# 98933
# 109352
# 118837
# 130142
# 142191
# 152578
# 163879
# 176190
# 187997
# 203244
#
# Disc length: 2948 seconds
#
#
# Revision: 0
# Processed by: cddbd v1.5.1PL2 Copyright (c) Steve Scherf et al.
# Submitted via: FreeRIP 2.943 
#
DISCID=070b8212
DTITLE=Jimmy "T-99" Nelson Watch that action! - Watch that action1
DYEAR=1900
DGENRE=Blues
TTITLE0=Cry hard luck
TTITLE1=Married men like to sport
TTITLE2=Meet me with your black dress on
TTITLE3=T-99 blues (My sweet little honeydripper)
TTITLE4=Rain drop blues
TTITLE5=Bad habit blues 1987
TTITLE6=Bad habit blues 1952
TTITLE7=Little miss teasin' Brown
TTITLE8=Right around the corner
TTITLE9=Sweetest little girl
TTITLE10=Rich little girl
TTITLE11=Mean poor girl
TTITLE12=Big mouth
TTITLE13=Secondhand
TTITLE14=Last time around
TTITLE15=Unlock the door
TTITLE16=She's my baby
TTITLE17=I sat and cried
EXTD=
EXTT0=
EXTT1=
EXTT2=
EXTT3=
EXTT4=
EXTT5=
EXTT6=
EXTT7=
EXTT8=
EXTT9=
EXTT10=
EXTT11=
EXTT12=
EXTT13=
EXTT14=
EXTT15=
EXTT16=
EXTT17=
PLAYORDER=
